# xmcd CD database file
#
# Track frame offsets:
#	183
#	14135
#	23113
#	33503
#	42455
#	52780
#	62043
#	74638
#	88075
#	99493
#	109640
#	118083
#	130520
#	142878
#	153523
#	167058
#	176060
#	186508
#	195430
#	206025
#	215258
#	227895
#	241338
#	252793
#	262925
#	271343
#	283410
#	294460
#
# Disc length: 4102 seconds
#
# Revision: 2
# Processed by: cddbd v1.4b41PL1 Copyright (c) Steve Scherf et al.
# Submitted via: Feurio! 1.60 - http://www.feurio.com
#
DISCID=a310041c,b710041c
DTITLE=Gus Backus - Hillbilly Gasthaus
DYEAR=1900
DGENRE=
TTITLE0=Sagnaw Michigan -1964
TTITLE1=Terribly Pretty -1964
TTITLE2=Tennessee Waltz -1964
TTITLE3=Oh!susanna -1964
TTITLE4=Laughin' And A Singin' -1964
TTITLE5=The House I Call My Home -1964
TTITLE6=Don't Fence Me In -1964
TTITLE7=Home On The Range -1964
TTITLE8=San Antonio Rose -1964
TTITLE9=Long Is The Road -1964
TTITLE10=Reach For Me -1964
TTITLE11=Paint And Glue -1964
TTITLE12=On The Top Of Old Smokey -1964
TTITLE13=I'm Coming Home -1964
TTITLE14=Deshalb Zog Ich Nach Alska -1964
TTITLE15=Das Gross-stadt Mädchen -1964
TTITLE16=Tennessee Waltz -1964
TTITLE17=Oh!susanna -1964
TTITLE18=Nur In Tennessee -1964
TTITLE19=Der Letzte Trapper -1964
TTITLE20=Oh! Catrin -1964
TTITLE21=Heim Will Ich Gehn -1964
TTITLE22=San Antonio Rose -1964
TTITLE23=Lang, Lang, Lang Ist Das Her -1964
TTITLE24=Hei Alter John -1964
TTITLE25=Es Wäre Alles Halb So Schwer -1964
TTITLE26=Ein Haus Auf Der Sierra -1964
TTITLE27=Es Ist Schön Mutter -1964
EXTD=Bear Family Records -1994\r\n\r\nunterhaltungsmusik\r\nbestellnr. 
EXTD=7017521\r\nbfr, Aad, 64\r\n\r\n33.95 Dm (17.36 Eur)\r\n\r\n \r\n\r\n 
EXTD=\r\nauf Diesem Album: \r\n1. \r\n2.\r\n3.\r\n4. \r\n5. \r\n6. \r\n7. 
EXTD=Don't Fence Me In\r\n8.\r\n9. \r\n10. \r\n11. \r\n12. \r\n13.\r\n14. U.A. 
EXTD=\r\n \r\n\r\n \r\n
EXTT0=
EXTT1=
EXTT2=
EXTT3=
EXTT4=
EXTT5=
EXTT6=
EXTT7=
EXTT8=
EXTT9=
EXTT10=
EXTT11=
EXTT12=
EXTT13=
EXTT14=
EXTT15=
EXTT16=
EXTT17=
EXTT18=
EXTT19=
EXTT20=
EXTT21=
EXTT22=
EXTT23=
EXTT24=
EXTT25=
EXTT26=
EXTT27=
PLAYORDER=
